<svg width="32" height="32" viewBox="0 0 32 32" fill="none" xmlns="http://www.w3.org/2000/svg">
<path d="M32 16C32 24.8366 24.8366 32 16 32C7.16344 32 0 24.8366 0 16C0 7.16344 7.16344 0 16 0C24.8366 0 32 7.16344 32 16Z" fill="white"/>
<path d="M27.2 16C27.2 22.1856 22.1856 27.2 16 27.2C9.81441 27.2 4.8 22.1856 4.8 16C4.8 9.81441 9.81441 4.8 16 4.8C22.1856 4.8 27.2 9.81441 27.2 16Z" fill="black"/>
<path d="M21.6 16.8H16.8V21.6H15.2V16.8H10.4V15.2H15.2V10.4H16.8V15.2H21.6V16.8Z" fill="white"/>
</svg>
