<svg width="28" height="28" viewBox="0 0 28 28" fill="none" xmlns="http://www.w3.org/2000/svg">
<path d="M25.2 14C25.2 20.1856 20.1856 25.2 14 25.2C7.81446 25.2 2.80005 20.1856 2.80005 14C2.80005 7.81441 7.81446 2.8 14 2.8C20.1856 2.8 25.2 7.81441 25.2 14Z" fill="white"/>
<path d="M21.84 14C21.84 18.3299 18.33 21.84 14 21.84C9.67014 21.84 6.16005 18.3299 6.16005 14C6.16005 9.67009 9.67014 6.16 14 6.16C18.33 6.16 21.84 9.67009 21.84 14Z" fill="black"/>
<path d="M17.92 14.56H14.56V17.92H13.44V14.56H10.08V13.44H13.44V10.08H14.56V13.44H17.92V14.56Z" fill="white"/>
</svg>
